<svg width="1024" height="1024" viewBox="0 0 1024 1024" fill="none" xmlns="http://www.w3.org/2000/svg">
<path d="M987.13 957.151C840.297 821.722 713.421 711.953 579.418 599.334C659.25 596.483 746.209 592.206 826.041 585.078C834.594 583.652 843.148 580.801 850.276 575.099C880.212 550.864 922.979 508.097 950.065 471.033C954.342 463.905 957.193 456.777 954.342 448.224C925.831 319.923 877.361 165.961 807.508 29.1068C801.806 19.1278 790.402 12 778.997 12C520.969 27.6812 274.346 63.3204 56.2346 107.513C41.979 110.364 32 123.194 32 137.45C36.2767 402.605 50.5324 676.314 70.4903 945.746C71.9159 960.002 81.8948 971.407 96.1505 974.258C183.11 987.088 268.644 998.492 385.541 1005.62C395.52 1005.62 404.073 995.641 399.796 985.662C359.88 873.043 297.155 649.229 287.177 609.313C297.155 609.313 301.432 607.887 309.986 607.887C362.732 714.805 442.563 863.064 499.586 985.662C506.714 1001.34 522.395 1011.32 539.502 1011.32C674.931 1014.17 823.19 1008.47 978.577 985.662C991.407 981.386 997.109 965.704 987.13 957.151ZM485.33 379.796C434.01 385.499 355.604 391.201 305.709 394.052C301.432 362.69 297.155 317.071 295.73 284.283C357.029 285.709 419.754 287.134 485.33 292.837C485.33 321.348 485.33 349.859 485.33 379.796Z" fill="#E2231A"/>
<path d="M820.339 532.332C845.999 509.523 875.936 481.012 895.894 448.224C868.808 328.476 826.041 197.324 767.593 74.725C543.779 90.4062 301.432 121.769 90.4482 161.685C99.0017 443.947 111.832 674.889 133.215 917.235C200.217 927.214 245.835 932.916 321.39 938.619C284.325 807.466 255.814 700.549 228.728 567.971C264.367 566.546 301.432 565.12 338.497 563.694C426.882 706.251 478.202 808.892 563.737 948.598C669.228 948.598 766.167 945.746 864.531 937.193C723.4 798.913 592.248 676.314 458.245 557.992C586.546 550.864 716.272 542.311 820.339 532.332ZM254.388 448.224C244.409 376.945 241.558 305.667 238.707 234.388C338.497 234.388 443.989 238.665 542.353 247.219C545.204 295.688 545.204 375.52 542.353 425.414C449.691 435.393 352.753 442.521 254.388 448.224Z" fill="white"/>
</svg>
